<svg enable-background="new 0 0 91 91" viewBox="0 0 91 91" xmlns="http://www.w3.org/2000/svg"><path d="m31.7 15.1c-2.1-.6-4.3.7-4.9 2.8l-2.2 8.1c-.6 2.1.7 4.3 2.8 4.9.3.1.7.1 1 .1 1.8 0 3.4-1.2 3.9-3l2.2-8.1c.6-2.1-.7-4.3-2.8-4.8z"/><path d="m71.7 15.1c-2.1-.6-4.3.7-4.9 2.8l-2.2 8.1c-.6 2.1.7 4.3 2.8 4.9.3.1.7.1 1 .1 1.8 0 3.4-1.2 3.9-3l2.2-8.1c.6-2.1-.7-4.3-2.8-4.8z"/><path d="m47.6 30.1c-2.1-.6-4.3.7-4.9 2.8l-2.2 8.1c-.6 2.1.7 4.3 2.8 4.9.3.1.7.1 1 .1 1.8 0 3.4-1.2 3.9-3l2.2-8.1c.6-2.1-.6-4.3-2.8-4.8z"/><path d="m23.6 45.1c-2.1-.6-4.3.7-4.9 2.8l-2.2 8.1c-.6 2.1.7 4.3 2.8 4.9.3.1.7.1 1 .1 1.8 0 3.4-1.2 3.9-3l2.2-8.1c.6-2.1-.7-4.3-2.8-4.8z"/><path d="m63.6 45.1c-2.1-.6-4.3.7-4.9 2.8l-2.2 8.1c-.6 2.1.7 4.3 2.8 4.9.3.1.7.1 1 .1 1.8 0 3.4-1.2 3.9-3l2.2-8.1c.6-2.1-.7-4.3-2.8-4.8z"/><path d="m39.6 60.1c-2.1-.6-4.3.7-4.9 2.8l-2.2 8.1c-.6 2.1.7 4.3 2.8 4.9.3.1.7.1 1 .1 1.8 0 3.4-1.2 3.9-3l2.2-8.1c.6-2.1-.7-4.3-2.8-4.8z"/></svg>